<svg width="24" height="24" viewBox="0 0 24 24" fill="none" xmlns="http://www.w3.org/2000/svg">
<g clip-path="url(#clip0_7_2)">
<path d="M7.81641 3.57227H13.1426C16.2598 3.57227 17.877 3.57813 17.9941 3.58984C18.6504 3.66016 18.9785 3.92969 18.9785 4.39844C18.9785 5.16016 18.6914 5.99219 18.1172 6.89453C17.543 7.78516 16.125 9.77148 13.8633 12.8535C11.6016 15.9238 10.4707 17.5703 10.4707 17.793C10.4707 18.0156 11.0449 18.127 12.1934 18.127C13.3418 18.127 14.2617 17.9922 14.9531 17.7227C15.6562 17.4531 16.3477 16.9609 17.0273 16.2461C17.707 15.5195 18.2637 15.1562 18.6973 15.1562C19.2012 15.1562 19.4531 15.4609 19.4531 16.0703V16.5098C19.4531 18.4668 19.2598 19.668 18.873 20.1133C18.6387 20.3828 18.0996 20.5176 17.2559 20.5176H6.09375C5.03906 20.5176 4.51172 20.2188 4.51172 19.6211C4.51172 18.9414 4.82812 18.1152 5.46094 17.1426C6.09375 16.1699 7.5293 14.1953 9.76758 11.2188C12.0059 8.23047 13.125 6.58398 13.125 6.2793C13.125 6.05664 12.6094 5.94531 11.5781 5.94531C10.5469 5.94531 9.71484 6.06836 9.08203 6.31445C8.44922 6.56055 7.8457 6.98828 7.27148 7.59766C6.70898 8.20703 6.18164 8.51172 5.68945 8.51172C5.19727 8.51172 4.95117 7.94336 4.95117 6.80664C4.95117 5.6582 5.05078 4.82031 5.25 4.29297C5.44922 3.76562 5.84766 3.50195 6.44531 3.50195L6.88477 3.51953C7.48242 3.55469 7.79297 3.57227 7.81641 3.57227Z" fill="black"/>
</g>
<defs>
<clipPath id="clip0_7_2">
<rect width="24" height="24" fill="white"/>
</clipPath>
</defs>
</svg>
